<svg width="231" height="51" viewBox="0 0 231 51" fill="none" xmlns="http://www.w3.org/2000/svg">
<g clip-path="url(#clip0_2_8)">
<path d="M11.5344 50.7203C11.5344 50.7203 17.9568 46.436 12.0449 37.4749C9.28531 33.2918 4.76226 28.8191 5.27972 24.3908C4.69288 24.9014 4.1598 25.4656 3.90367 25.8091C2.96819 27.0631 2.28999 28.4276 1.94251 29.8355C1.53952 31.4677 1.64475 33.186 2.57965 34.8575C3.44749 36.4087 4.95421 37.8079 6.37132 39.2152C9.76404 42.5836 12.752 46.1637 11.8414 49.9733C11.7928 50.1779 11.7691 50.5636 11.5344 50.7203Z" fill="url(#paint0_linear_2_8)"/>
<path d="M15.7574 42.2737C15.7574 42.2737 26.0691 35.3952 16.5766 21.0073C12.1461 14.2913 4.88425 7.1098 5.71566 0C4.92646 0.690339 3.91754 1.72585 3.50646 2.27742C2.00437 4.29062 0.915668 6.48132 0.357731 8.74198C-0.289823 11.3628 -0.120418 14.1213 1.3811 16.8052C2.7745 19.296 5.19357 21.5422 7.46926 23.8022C12.9162 29.2111 17.7139 34.9581 16.2517 41.0757C16.1725 41.4036 16.1338 42.0228 15.7574 42.2737Z" fill="url(#paint1_linear_2_8)"/>
<path d="M39.9836 14.9683C43.1303 14.9683 45.4399 17.0469 46.3059 19.2121L44.4872 20.1936C43.5634 18.346 42.0911 17.1335 39.9836 17.1335C37.7607 17.1335 36.2307 18.4037 36.2307 20.1647C36.2307 21.8103 37.2699 22.8496 39.464 23.6868L40.9363 24.2353C44.5738 25.5921 46.8544 27.151 46.8544 30.3555C46.8544 33.8198 43.5345 35.9561 40.0991 35.9561C36.6637 35.9561 33.8345 33.8775 33.0551 30.9906L34.9893 30.0668C35.6821 32.2031 37.5009 33.762 40.0991 33.762C42.4086 33.762 44.3717 32.4341 44.3717 30.3844C44.3717 28.0749 42.755 27.2088 40.3589 26.285L38.8577 25.7076C35.7976 24.5528 33.8345 22.965 33.8345 20.107C33.8345 17.1624 36.4327 14.9683 39.9836 14.9683ZM56.1791 15.3148C60.7116 15.3148 63.3386 18.0862 63.3386 21.8391C63.3386 25.5921 60.7116 28.2481 56.1791 28.2481H51.9931V35.5231H49.597V15.3148H56.1791ZM56.1214 26.1118C59.0372 26.1118 60.9425 24.6106 60.9425 21.8391C60.9425 19.0389 59.0372 17.5665 56.1214 17.5665H51.9931V26.1118H56.1214ZM68.4773 33.2713H78.0907V35.5231H67.8999H66.0812V15.3148H68.4773H77.8309V17.5665H68.4773V24.2641H75.7523V26.4582H68.4773V33.2713ZM83.5181 33.2713H93.1315V35.5231H82.9407H81.122V15.3148H83.5181H92.8716V17.5665H83.5181V24.2641H90.7931V26.4582H83.5181V33.2713ZM112.849 33.3579C111.001 34.9457 108.663 35.8117 106.065 35.8117C100.811 35.8117 95.7297 31.5391 95.7297 25.4189C95.7297 19.2987 100.811 15.0261 106.065 15.0261C108.634 15.0261 110.944 15.8921 112.762 17.4222L111.29 19.0966C109.875 17.9707 108.057 17.3067 106.238 17.3067C102.11 17.3067 98.2124 20.6555 98.2124 25.4189C98.2124 30.1823 102.11 33.5311 106.238 33.5311C108.086 33.5311 109.933 32.8382 111.348 31.6835L112.849 33.3579ZM128.265 15.3148H130.661V35.5231H128.265V26.6891H117.988V35.5231H115.592V15.3148H117.988V24.4374H128.265V15.3148ZM148.993 14.9683C152.14 14.9683 154.449 17.0469 155.315 19.2121L153.497 20.1936C152.573 18.346 151.1 17.1335 148.993 17.1335C146.77 17.1335 145.24 18.4037 145.24 20.1647C145.24 21.8103 146.279 22.8496 148.473 23.6868L149.946 24.2353C153.583 25.5921 155.864 27.151 155.864 30.3555C155.864 33.8198 152.544 35.9561 149.108 35.9561C145.673 35.9561 142.844 33.8775 142.064 30.9906L143.999 30.0668C144.692 32.2031 146.51 33.762 149.108 33.762C151.418 33.762 153.381 32.4341 153.381 30.3844C153.381 28.0749 151.764 27.2088 149.368 26.285L147.867 25.7076C144.807 24.5528 142.844 22.965 142.844 20.107C142.844 17.1624 145.442 14.9683 148.993 14.9683ZM175.293 33.3579C173.445 34.9457 171.107 35.8117 168.508 35.8117C163.254 35.8117 158.173 31.5391 158.173 25.4189C158.173 19.2987 163.254 15.0261 168.508 15.0261C171.078 15.0261 173.387 15.8921 175.206 17.4222L173.734 19.0966C172.319 17.9707 170.5 17.3067 168.682 17.3067C164.553 17.3067 160.656 20.6555 160.656 25.4189C160.656 30.1823 164.553 33.5311 168.682 33.5311C170.529 33.5311 172.377 32.8382 173.791 31.6835L175.293 33.3579ZM187.937 15.0261C193.191 15.0261 198.272 19.2987 198.272 25.4189C198.272 31.5391 193.191 35.8117 187.937 35.8117C182.654 35.8117 177.602 31.5391 177.602 25.4189C177.602 19.2987 182.654 15.0261 187.937 15.0261ZM187.937 33.5311C191.892 33.5311 195.79 30.1823 195.79 25.4189C195.79 20.6555 191.892 17.3067 187.937 17.3067C183.953 17.3067 180.085 20.6555 180.085 25.4189C180.085 30.1823 183.953 33.5311 187.937 33.5311ZM216.142 35.5231H213.544L208.434 28.2481H207.886H203.7V35.5231H201.304V15.3148H207.886C212.418 15.3148 215.045 18.0862 215.045 21.8391C215.045 24.726 213.486 26.9778 210.715 27.8439L216.142 35.5231ZM203.7 17.5665V26.1118H207.828C210.744 26.1118 212.649 24.6106 212.649 21.8391C212.649 19.0389 210.744 17.5665 207.828 17.5665H203.7ZM221.137 33.2713H230.75V35.5231H220.559H218.74V15.3148H221.137H230.49V17.5665H221.137V24.2641H228.412V26.4582H221.137V33.2713Z" fill="white"/>
</g>
<defs>
<linearGradient id="paint0_linear_2_8" x1="1.71985" y1="24.3908" x2="14.5464" y2="24.3908" gradientUnits="userSpaceOnUse">
<stop stop-color="#616161"/>
<stop offset="0.5" stop-color="#E6E7E8"/>
<stop offset="1" stop-color="#616161"/>
</linearGradient>
<linearGradient id="paint1_linear_2_8" x1="0" y1="0" x2="20.5932" y2="0" gradientUnits="userSpaceOnUse">
<stop stop-color="#616161"/>
<stop offset="0.5" stop-color="#E6E7E8"/>
<stop offset="1" stop-color="#616161"/>
</linearGradient>
<clipPath id="clip0_2_8">
<rect width="230.75" height="50.7203" fill="white"/>
</clipPath>
</defs>
</svg>
