<svg id="SvgjsSvg1001" width="256" height="256" xmlns="http://www.w3.org/2000/svg" version="1.1" xmlns:xlink="http://www.w3.org/1999/xlink" xmlns:svgjs="http://svgjs.com/svgjs"><defs id="SvgjsDefs1002"></defs><g id="SvgjsG1008"><svg xmlns="http://www.w3.org/2000/svg" viewBox="0 0 5000 5000" width="256" height="256"><path fill="#0412a3" d="M462.335 1053.924a25.268 25.268 0 0 1-15.468-5.273c-11.107-8.553-13.178-24.491-4.625-35.598 56.962-73.974 118.842-145.471 183.919-212.503 9.765-10.058 25.834-10.296 35.894-.531 10.058 9.765 10.296 25.835.531 35.893-63.734 65.648-124.335 135.668-180.121 208.114-4.999 6.493-12.523 9.898-20.13 9.898zm386.869-398.47c-7.35 0-14.64-3.176-19.658-9.308-8.879-10.849-7.282-26.841 3.567-35.719 72.319-59.187 148.796-114.781 227.305-165.239 11.794-7.578 27.498-4.163 35.077 7.63 7.58 11.793 4.164 27.498-7.629 35.077-76.883 49.413-151.776 103.856-222.6 161.819a25.285 25.285 0 0 1-16.062 5.74zM1316.36 355.28c-9.381 0-18.398-5.22-22.808-14.21-6.174-12.586-.976-27.794 11.61-33.968 83.891-41.151 171.036-77.814 259.015-108.97 13.21-4.679 27.72 2.239 32.4 15.454 4.68 13.214-2.239 27.721-15.454 32.4-86.139 30.504-171.464 66.401-253.604 106.693a25.265 25.265 0 0 1-11.159 2.601zm523.301-185.314c-11.579 0-22.037-7.973-24.723-19.738-3.121-13.667 5.429-27.276 19.096-30.396 90.902-20.756 184.131-36.447 277.097-46.637 13.938-1.529 26.471 8.531 27.998 22.466 1.528 13.935-8.531 26.47-22.466 27.998-91.033 9.979-182.321 25.343-271.328 45.666a25.55 25.55 0 0 1-5.674.641zm98.368 4742.326a25.39 25.39 0 0 1-5.993-.719c-9.461-2.29-18.905-4.648-28.038-6.929-18.579-4.641-37.791-9.438-59.887-14.374a2439.78 2439.78 0 0 1-154.358-39.841c-13.452-3.947-21.156-18.052-17.209-31.504 3.947-13.451 18.051-21.159 31.503-17.209a2388.433 2388.433 0 0 0 151.133 39.009c22.714 5.074 42.238 9.95 61.119 14.665 9.462 2.363 18.399 4.595 27.683 6.843 13.625 3.298 21.996 17.018 18.698 30.643-2.813 11.617-13.204 19.416-24.651 19.416zm-475.697-143.07a25.3 25.3 0 0 1-9.618-1.903c-77.171-31.632-153.612-67.686-227.199-107.159-12.353-6.627-16.996-22.014-10.369-34.367 6.626-12.353 22.014-16.997 34.367-10.369 72.051 38.65 146.896 73.951 222.455 104.923 12.971 5.316 19.177 20.142 13.859 33.113-4.024 9.819-13.5 15.762-23.495 15.762zm-437.57-234.683a25.265 25.265 0 0 1-14.211-4.369c-69.059-46.771-136.52-97.69-200.508-151.346-10.742-9.008-12.148-25.018-3.141-35.76 9.008-10.741 25.018-12.148 35.76-3.141 62.664 52.545 128.728 102.411 196.357 148.213 11.607 7.861 14.644 23.643 6.783 35.25-4.907 7.246-12.902 11.153-21.04 11.153zm-380.51-319.058a25.308 25.308 0 0 1-18.211-7.698c-58.159-59.885-113.875-123.449-165.6-188.927-8.69-11-6.817-26.963 4.184-35.652 11-8.691 26.963-6.817 35.652 4.184 50.657 64.126 105.223 126.378 162.182 185.026 9.767 10.057 9.532 26.127-.525 35.894a25.297 25.297 0 0 1-17.682 7.173zm3621.514-170.069a25.274 25.274 0 0 1-15.907-5.616c-10.917-8.794-12.639-24.773-3.845-35.69 57.416-71.28 111.279-146.605 160.095-223.884 7.485-11.853 23.161-15.394 35.016-7.904 11.853 7.486 15.392 23.164 7.904 35.016-49.848 78.914-104.851 155.832-163.479 228.618-5.016 6.225-12.368 9.46-19.784 9.46zm296.553-469.565c-3.688 0-7.435-.808-10.98-2.513-12.635-6.074-17.953-21.24-11.878-33.875 39.653-82.477 74.883-168.109 104.71-254.518 4.575-13.251 19.029-20.283 32.276-15.712 13.252 4.574 20.286 19.025 15.712 32.276-30.465 88.254-66.446 175.714-106.945 259.951-4.37 9.089-13.443 14.391-22.895 14.391zm181.251-524.991c-1.807 0-3.64-.194-5.477-.598-13.691-3.012-22.35-16.552-19.338-30.243 19.615-89.193 34.256-180.64 43.514-271.798 1.416-13.946 13.878-24.106 27.817-22.688 13.947 1.416 24.105 13.87 22.688 27.817-9.454 93.093-24.405 186.481-44.438 277.573-2.607 11.855-13.108 19.937-24.766 19.937z" class="color0412a3 svgShape"></path><circle cx="2380.514" cy="2503.403" r="1776.434" fill="#adedff" class="coloradedff svgShape"></circle><path fill="#fc9a8d" d="m3440.194 3791.495 331.664 174.322a304.261 304.261 0 0 1 140.772 161.176l184.593 494.209c35.877 95.72 6.299 203.627-73.262 267.714l-47.336 38.147a81.917 81.917 0 0 1-51.401 18.134l-137.727-.005H2507.102l-139.674.005a81.915 81.915 0 0 1-51.401-18.134l-47.336-38.147c-79.561-64.087-109.003-171.994-73.262-267.714l184.592-494.209a304.27 304.27 0 0 1 140.772-161.176l331.664-174.322" class="colorfc9a8d svgShape"></path><path fill="#0412a3" d="m3925.224 4970.581-137.729-.006H2507.102l-139.673.006c-24.411 0-48.322-8.436-67.33-23.752l-47.337-38.149c-88.179-71.029-120.778-190.127-81.113-296.356l184.593-494.212c28.055-74.811 82.218-136.824 152.525-174.647.071-.039.144-.077.216-.115l331.664-174.322c12.409-6.522 27.756-1.75 34.278 10.659 6.521 12.409 1.75 27.756-10.659 34.278l-331.552 174.264a278.919 278.919 0 0 0-128.927 147.678l-184.581 494.179c-32 85.701-5.716 181.774 65.406 239.064l47.341 38.152a56.721 56.721 0 0 0 35.474 12.515l139.673-.006h1280.396l137.729.006a56.717 56.717 0 0 0 35.474-12.516l47.335-38.147c71.221-57.369 97.51-153.431 65.422-239.042l-184.603-494.235a278.89 278.89 0 0 0-128.916-147.647l-331.552-174.264c-12.409-6.522-17.182-21.869-10.659-34.278 6.521-12.409 21.869-17.181 34.278-10.659l331.664 174.322c.072.038.145.076.216.115a329.662 329.662 0 0 1 152.514 174.616l184.604 494.24c19.476 51.961 22.024 107.748 7.362 161.304-14.658 53.538-45.255 100.241-88.48 135.06l-47.331 38.145c-19.008 15.315-42.919 23.75-67.329 23.75z" class="color0412a3 svgShape"></path><path fill="#ffffff" d="M3549.467 3289.558c86.408 12.872 88.456 125.156 63.807 188.696-18.35 47.928-52.721 78.602-105.168 78.602-.548 0-1.644 25.607-1.644 25.607 0 102.841-43.135 195.548-112.289 261.278-4.793 4.656-9.722 9.038-14.926 13.42-62.854 53.543-144.333 85.723-233.205 85.723-89.01 0-170.488-32.18-233.343-85.723-5.067-4.382-10.133-8.764-14.926-13.42-69.017-65.73-112.152-158.437-112.152-261.278 0 0-1.232-25.607-1.78-25.607-52.31 0-86.682-30.674-105.168-78.602-24.512-63.539-33.824-151.727 52.721-164.6l-4.194-195.66s78.715-247.389 411.244-247.389 411.023 418.953 411.023 418.953z" class="colorfff svgShape"></path><path fill="#0412a3" d="M3146.042 3968.267c-46.609 0-92.158-8.207-135.382-24.395-41.815-15.66-80.312-38.333-114.421-67.388l-.146-.126c-5.245-4.538-10.639-9.203-15.92-14.327-37.454-35.694-66.927-77.688-87.602-124.815-21.371-48.716-32.248-100.569-32.333-154.125l-.137-2.746c-47.921-7.89-84.764-40.202-105.111-92.957-13.659-35.408-32.314-102.126-3.774-151.118 8.634-14.821 24.778-32.882 54.361-42.578l-3.755-175.154a25.386 25.386 0 0 1 1.188-8.24c.88-2.763 22.276-68.422 87.076-133.858 37.872-38.245 82.896-68.698 133.818-90.512 63.049-27.009 135.238-40.705 214.536-40.705h.002c81.316 0 155.139 23.652 219.417 70.301 50.748 36.829 95.397 87.887 132.711 151.755 48.961 83.807 72.079 166.727 80.253 201.146 26.058 8.018 46.969 24.734 61.099 49.051 13.514 23.254 20.55 53.243 20.348 86.726-.172 28.613-5.609 58.151-15.311 83.18-20.207 52.735-57.006 85.05-104.995 92.955l-.119 2.685c-.074 53.601-10.959 105.477-32.354 154.204-20.701 47.147-50.219 89.145-87.739 124.83-4.819 4.675-10.094 9.417-16.119 14.494-69.469 59.143-158.107 91.717-249.591 91.717zm-216.803-130.361c60.294 51.329 137.283 79.595 216.803 79.595 79.465 0 156.44-28.292 216.746-79.663l.107-.091c5.23-4.405 9.55-8.286 13.593-12.214l.198-.19c67.319-63.986 104.394-150.243 104.394-242.88 0-.361.008-.724.023-1.085.011-.267.283-6.611.629-13.074.208-3.896.401-7.04.574-9.343a95.45 95.45 0 0 1 .362-3.972c1.901-16.157 14.519-23.517 25.438-23.517 38.768 0 65.414-20.377 81.463-62.295l.04-.105c13.914-35.865 18.089-92.246-1.579-126.092-9.425-16.218-23.263-25.48-42.304-28.317a25.38 25.38 0 0 1-21.205-20.413c-.192-1.016-19.868-102.75-78.463-202.523-76.277-129.883-179.774-195.739-307.615-195.739-129.822 0-234.298 38.491-310.522 114.405-48.901 48.701-70.062 98.2-75.243 111.757l4.093 190.961c.274 12.78-8.999 23.771-21.643 25.65-19.605 2.916-32.705 10.46-40.046 23.062-12.853 22.062-10.134 62.173 7.272 107.294 16.185 41.959 42.838 62.355 81.486 62.355 10.861 0 23.451 7.317 25.427 23.385a96.05 96.05 0 0 1 .385 3.97c.185 2.303.395 5.445.623 9.342.38 6.462.687 12.807.699 13.074.02.406.029.812.029 1.22 0 92.594 37.032 178.856 104.275 242.897l.18.173c4.248 4.126 8.879 8.133 13.781 12.373z" class="color0412a3 svgShape"></path><path fill="#ffffff" d="M3787.496 4945.192H2507.102v-733.484c0-45.241 36.675-81.917 81.917-81.917H3705.58c45.241 0 81.917 36.675 81.917 81.917v733.484z" class="colorfff svgShape"></path><path fill="#0412a3" d="M3787.496 4970.575H2507.102c-14.019 0-25.383-11.364-25.383-25.383v-733.484c0-59.165 48.135-107.299 107.3-107.299H3705.58c59.165 0 107.3 48.134 107.3 107.299v733.484c-.001 14.019-11.365 25.383-25.384 25.383zm-1255.012-50.765h1229.629v-708.102c0-31.172-25.361-56.533-56.534-56.533h-1116.56c-31.173 0-56.534 25.361-56.534 56.533v708.102zm868.71-1406.28h-135.023c-30.732 0-58.048-19.542-67.97-48.629a37.455 37.455 0 0 1-.187-.566l-29.125-92.428h-45.098l-24.751 89.041c-8.607 30.96-37.061 52.582-69.193 52.582h-135.022c-30.731 0-58.047-19.542-67.971-48.628a37.575 37.575 0 0 1-.187-.567l-34.72-110.182a25.385 25.385 0 0 1 24.21-33.012h287.761c.378-.01.759-.01 1.141 0h81.869c.39-.01.779-.01 1.167 0h287.754a25.384 25.384 0 0 1 24.456 32.181l-29.919 107.626c-8.605 30.96-37.058 52.582-69.192 52.582zm-154.867-64.792a21.049 21.049 0 0 0 19.844 14.026h135.023c9.419 0 17.758-6.338 20.28-15.412l20.973-75.445h-220.33l24.21 76.831zm-371.348-.004a21.051 21.051 0 0 0 19.846 14.03h135.022c9.419 0 17.759-6.338 20.281-15.413l20.973-75.444H2850.77l24.209 76.827z" class="color0412a3 svgShape"></path><path fill="#0412a3" d="M2507.065 4655.562a25.269 25.269 0 0 1-13.136-3.682l-117.219-71.07c-11.988-7.268-15.813-22.878-8.545-34.865 7.268-11.988 22.877-15.813 34.865-8.545l117.219 71.07c11.987 7.268 15.813 22.878 8.545 34.865-4.773 7.875-13.147 12.227-21.729 12.227zm1280.419 0c-8.583 0-16.955-4.352-21.729-12.227-7.269-11.987-3.442-27.598 8.545-34.865l117.219-71.07c11.991-7.268 27.598-3.442 34.865 8.545 7.269 11.987 3.442 27.598-8.545 34.865l-117.219 71.07a25.266 25.266 0 0 1-13.136 3.682z" class="color0412a3 svgShape"></path><path fill="#fcf379" d="M2933.989 3031.869s334.724 296.181 721.064 254.226c0 0-38.57-126.567-138.783-228.369l138.783 32.375s-10.152-132.733-102.554-220.587c-73.148-69.548-201.286-79.836-201.286-79.836l138.235-73.469s-205.83-95.716-403.953 9.854l22.115-101.75s-256.739-11.164-366.686 221.614c-109.947 232.777-39.773 397.311-9.596 467.716l202.661-281.774z" class="colorfcf379 svgShape"></path><path fill="#0412a3" d="M2731.332 3339.025a25.38 25.38 0 0 1-23.334-15.383c-15.601-36.397-41.711-97.314-49.686-180.548-9.604-100.232 10.47-203.862 59.661-308.009 26.738-56.611 64.002-104.318 110.753-141.795 37.299-29.898 80.584-53.285 128.652-69.513 81.479-27.504 148.522-24.942 151.334-24.824a25.383 25.383 0 0 1 23.701 30.75l-11.339 52.169c34.345-13.334 70.49-22.407 107.984-27.076 43.938-5.473 89.779-4.93 136.247 1.614 79.054 11.132 132.604 35.738 134.845 36.78a25.385 25.385 0 0 1 1.209 45.431l-74.026 39.345c44.868 11.901 101.194 33.73 142.656 73.151 98.345 93.506 109.928 231.229 110.373 237.047a25.387 25.387 0 0 1-8.783 21.202 25.389 25.389 0 0 1-22.293 5.453l-63.689-14.857c65.683 88.453 92.395 174.328 93.736 178.733a25.384 25.384 0 0 1-21.54 32.634c-91.15 9.899-186.929 2.274-284.669-22.662-77.722-19.829-156.859-50.595-235.215-91.443-95.559-49.817-165.812-101.878-199.183-128.47l-186.793 259.709a25.378 25.378 0 0 1-20.601 10.562zm219.469-326.173c.822.726 83.741 73.413 211.767 139.975 110.377 57.387 276.765 121.249 457.063 110.755-17.287-42.106-55.623-121.178-121.449-188.049a25.383 25.383 0 0 1 23.855-42.527l101.921 23.775a398.444 398.444 0 0 0-10.13-37.614c-11.966-37.07-35.354-89.934-78.818-131.259-65.879-62.636-184.637-72.834-185.828-72.93a25.384 25.384 0 0 1-9.882-47.716l87.047-46.264c-19.23-5.405-42.946-10.859-69.751-14.546-95.106-13.079-182.304 1.054-259.164 42.01a25.384 25.384 0 0 1-36.74-27.793l15.185-69.861c-24.89 2.041-62.559 7.469-103.968 21.649-95.766 32.796-165.758 94.806-208.032 184.309-87.248 184.72-55.926 324.201-26.289 404.702l175.796-244.421a25.38 25.38 0 0 1 37.417-4.195zM4187.136 3779.311c-7.279 0-14.504-3.114-19.524-9.146-8.967-10.775-7.502-26.78 3.273-35.748l140.025-116.532-140.024-116.528c-10.776-8.968-12.242-24.972-3.274-35.747s24.972-12.242 35.747-3.274l163.47 136.039a25.383 25.383 0 0 1 0 39.022l-163.47 136.043a25.29 25.29 0 0 1-16.223 5.871zm-316.705 0a25.285 25.285 0 0 1-16.224-5.873l-163.469-136.043a25.384 25.384 0 0 1 0-39.022l163.47-136.039c10.775-8.968 26.779-7.503 35.747 3.274 8.967 10.775 7.502 26.779-3.273 35.747l-140.025 116.528 140.025 116.532c10.775 8.968 12.24 24.973 3.273 35.748-5.019 6.032-12.246 9.147-19.524 9.148zm107.464 49.378c-1.997 0-4.024-.236-6.05-.732-13.618-3.33-21.957-17.068-18.627-30.686l90.296-369.233c3.329-13.617 17.078-21.961 30.686-18.626 13.618 3.33 21.957 17.068 18.627 30.686l-90.296 369.233c-2.835 11.591-13.214 19.358-24.636 19.358z" class="color0412a3 svgShape"></path><path fill="#ffffff" d="M334.797 1305.022h1747.43v2449.479H334.797z" class="colorfff svgShape"></path><path fill="#0412a3" d="M2082.227 3779.884H334.797c-14.019 0-25.383-11.364-25.383-25.383V1305.022c0-14.019 11.364-25.383 25.383-25.383h1747.43c14.019 0 25.383 11.364 25.383 25.383v2449.479c-.001 14.019-11.365 25.383-25.383 25.383zM360.18 3729.118h1696.663V1330.405H360.18v2398.713z" class="color0412a3 svgShape"></path><path fill="#80d0ff" d="m955.307 1615.046-205.46-123.045-205.46 123.045v-306.162c0-31.248 27.302-56.58 60.982-56.58h288.956c33.679 0 60.982 25.332 60.982 56.58v306.162z" class="color80d0ff svgShape"></path><path fill="#0412a3" d="M955.307 1640.429c-4.517 0-9.03-1.204-13.042-3.606l-192.418-115.235-192.418 115.235a25.383 25.383 0 0 1-38.425-21.776v-306.162c0-45.195 38.743-81.963 86.365-81.963h288.956c47.622 0 86.365 36.768 86.365 81.963v306.162a25.382 25.382 0 0 1-25.383 25.382zm-205.46-173.811c4.513 0 9.027 1.203 13.042 3.607l167.035 100.034v-261.374c0-17.202-15.969-31.197-35.599-31.197H605.369c-19.629 0-35.599 13.995-35.599 31.197v261.374l167.035-100.034a25.36 25.36 0 0 1 13.042-3.607z" class="color0412a3 svgShape"></path><path fill="#fcf379" d="M334.797 3754.501h-79.199c-46.722 0-84.597-37.876-84.597-84.597V1389.62c0-46.722 37.875-84.597 84.597-84.597h79.199v2449.478z" class="colorfcf379 svgShape"></path><path fill="#0412a3" d="M334.797 3779.884h-79.199c-60.644 0-109.98-49.337-109.98-109.98V1389.62c0-60.644 49.337-109.981 109.98-109.981h79.199c14.019 0 25.383 11.364 25.383 25.383v2449.479c0 14.019-11.365 25.383-25.383 25.383zm-79.199-2449.479c-32.651 0-59.214 26.563-59.214 59.215v2280.284c0 32.651 26.563 59.215 59.214 59.215h53.816V1330.405h-53.816zm1012.349 608.974h-518.1c-14.019 0-25.383-11.364-25.383-25.383s11.365-25.383 25.383-25.383h518.101c14.019 0 25.383 11.364 25.383 25.383s-11.365 25.383-25.384 25.383zm265.693 185.985h-518.101c-14.019 0-25.383-11.364-25.383-25.383s11.365-25.383 25.383-25.383h518.101c14.019 0 25.383 11.364 25.383 25.383s-11.364 25.383-25.383 25.383zm106.277-185.985h-172.7c-14.019 0-25.383-11.365-25.383-25.383s11.365-25.383 25.383-25.383h172.7c14.019 0 25.383 11.365 25.383 25.383s-11.364 25.383-25.383 25.383z" class="color0412a3 svgShape"></path><path fill="#80d0ff" d="m1014.954 3306.672 459.612-468.18c36.583-37.265 86.769-57.222 138.37-55.093 54.042 2.229 108.869-17.706 150.209-59.816 31.563-32.152 50.453-72.329 56.615-113.957l-93.44 51.417c-19.574 10.771-43.268 10.107-62.159-1.741l-61.787-38.753c-18.894-11.851-30.114-33.09-29.431-55.717l2.231-73.982c.683-22.628 13.164-43.206 32.741-53.982l86.61-47.671c-71.689-28.253-156.224-12.751-214.195 46.301-29.666 30.219-48.128 67.516-55.383 106.519-6.74 36.235-24.829 69.305-50.456 95.41l-462.272 470.889c-36.311 36.988-86.037 56.968-137.266 55.136-53.704-1.92-108.092 18.042-149.164 59.879-31.563 32.151-50.453 72.329-56.615 113.956l93.44-51.416c19.575-10.771 43.268-10.107 62.159 1.741l61.787 38.753c18.895 11.85 30.114 33.09 29.431 55.717l-2.231 73.983c-.682 22.628-13.163 43.206-32.741 53.982l-86.611 47.672c71.689 28.252 156.225 12.75 214.195-46.301 30.025-30.584 48.559-68.419 55.618-107.934 6.569-36.764 24.767-70.363 50.733-96.812z" class="color80d0ff svgShape"></path><path fill="#0412a3" d="M766.476 3596.81c-27.363 0-54.94-5.062-81.374-15.479a25.381 25.381 0 0 1-16.024-21.995 25.381 25.381 0 0 1 13.092-23.857l86.611-47.671c11.684-6.432 19.198-18.889 19.609-32.511l2.231-73.981c.41-13.588-6.313-26.403-17.546-33.448l-61.788-38.753c-11.029-6.919-24.99-7.305-36.436-1.006l-93.439 51.415a25.383 25.383 0 0 1-37.346-25.956c7.21-48.706 29.207-92.976 63.611-128.021 22.596-23.018 49.071-40.579 78.689-52.196 28.63-11.23 58.741-16.367 89.494-15.268 43.94 1.599 87.037-15.76 118.246-47.551l462.272-470.89c22.852-23.278 37.933-51.727 43.614-82.27 8.449-45.421 29.966-86.799 62.225-119.659 63.362-64.544 158.2-85.009 241.615-52.134a25.384 25.384 0 0 1 2.933 45.852l-86.61 47.671c-11.685 6.431-19.199 18.889-19.609 32.51l-2.231 73.983c-.41 13.586 6.314 26.403 17.547 33.448l61.787 38.753c11.03 6.918 24.991 7.303 36.435 1.005l93.44-51.415a25.384 25.384 0 0 1 37.346 25.956c-7.21 48.707-29.207 92.976-63.611 128.021-22.744 23.168-49.409 40.802-79.253 52.409-28.847 11.221-59.166 16.261-90.115 14.986-44.331-1.839-87.772 15.49-119.211 47.514l-459.612 468.181c-23.145 23.576-38.311 52.447-43.857 83.491-8.229 46.062-29.838 87.99-62.492 121.253-43.285 44.091-101.26 67.613-160.243 67.613zm-74.249-343.93a86.572 86.572 0 0 1 46.034 13.228l61.787 38.752c26.436 16.579 42.267 46.462 41.316 77.986l-2.231 73.982c-.95 31.489-18.527 60.401-45.873 75.454l-24.958 13.736c44.983-.486 89.102-18.683 122.188-52.385 25.464-25.939 42.32-58.657 48.744-94.616 7.351-41.146 27.271-79.228 57.605-110.128l18.113 17.782-18.113-17.782 459.611-468.181c41.476-42.248 98.891-65.088 157.53-62.672 48.722 2.023 96.487-17.03 131.049-52.237 12.739-12.976 23.297-27.576 31.476-43.401l-37.95 20.882c-27.578 15.175-61.253 14.227-87.882-2.475l-61.788-38.753c-26.435-16.58-42.267-46.463-41.316-77.986l2.231-73.983c.95-31.49 18.527-60.402 45.873-75.454l24.958-13.737c-44.983.486-89.103 18.683-122.189 52.386-25.161 25.629-41.946 57.919-48.542 93.378-7.534 40.505-27.347 78.041-57.297 108.551l-462.272 470.89c-41.172 41.938-98.136 64.802-156.286 62.721-49.103-1.75-95.315 16.817-130.143 52.294-12.739 12.977-23.297 27.576-31.476 43.401l37.95-20.882a86.772 86.772 0 0 1 41.851-10.751z" class="color0412a3 svgShape"></path><path fill="#80d0ff" d="M1475.032 3434.867c-7.696-23.666-38.551-110.117-94.526-167.136L956.195 2835.51c-23.595-24.035-76.158-34.832-110.28-39.565l190.866-272.372v.148c7.333 38.826 26.862 121.432 66.574 161.884l424.312 432.222c55.103 56.132 135.98 86.748 159.866 94.957l-212.501 222.083z" class="color80d0ff svgShape"></path><path fill="#0412a3" d="M1475.032 3460.251a25.383 25.383 0 0 1-24.139-17.534c-5.445-16.743-35.302-103.013-88.5-157.203l-424.312-432.222c-13.676-13.932-48.541-25.67-95.654-32.205a25.385 25.385 0 0 1-17.3-39.709l190.866-272.371a25.386 25.386 0 0 1 45.923 11.022c6.365 33.359 24.554 112.144 59.551 147.794l424.312 432.222c51.112 52.066 127.736 81.082 150.002 88.734a25.384 25.384 0 0 1 10.09 41.554l-212.5 222.083a25.382 25.382 0 0 1-18.339 7.835zm-585.578-682.207c39.385 9.062 67.843 22.355 84.854 39.684l424.312 432.222c41.505 42.279 69.825 98.814 86.077 138.103l158.31-165.449c-37.523-16.288-92.132-44.901-133.453-86.993l-424.312-432.222c-28.997-29.538-48.072-76.885-60.158-118.891l-135.63 193.546z" class="color0412a3 svgShape"></path><ellipse cx="1647" cy="3389.032" fill="#80d0ff" rx="177.751" ry="181.064" class="color80d0ff svgShape"></ellipse><path fill="#0412a3" d="M1647 3595.479c-54.348 0-105.418-21.534-143.803-60.634-38.261-38.974-59.332-90.758-59.332-145.814s21.071-106.84 59.332-145.813c38.385-39.101 89.455-60.634 143.803-60.634s105.417 21.533 143.802 60.634c38.26 38.974 59.331 90.758 59.331 145.813 0 55.057-21.071 106.841-59.332 145.814-38.384 39.1-89.453 60.634-143.801 60.634zm0-362.129c-40.61 0-78.815 16.135-107.576 45.433-59.679 60.792-59.679 159.707 0 220.499 28.761 29.297 66.966 45.432 107.576 45.432s78.814-16.135 107.575-45.432c59.679-60.792 59.679-159.707 0-220.499-28.761-29.299-66.965-45.433-107.575-45.433z" class="color0412a3 svgShape"></path><path fill="#80d0ff" d="M900.026 2333.338c32.044 12.277 62.831 27.689 84.423 52.187 57.829 65.61 66.365 166.749 33.6 255.488-24.104 65.283-66.917 122.836-126.414 145.401-48.011 18.208-103.631 9.513-155.125-10.216-83.388-31.949-141.878-101.84-163.691-183.069l178.328 68.322c18.78 7.195 39.881 2.802 54.32-11.421 16.482-16.301 36.951-42.252 50.769-79.675 13.397-36.285 14.706-70.01 12.874-93.847-1.528-20.515-14.547-38.239-33.476-45.491l-179.073-68.607c69.273-47.545 159.332-61.306 243.465-29.072z" class="color80d0ff svgShape"></path><path fill="#0412a3" d="M833.897 2821.867c-32.671.001-68.259-7.327-106.468-21.966-44.03-16.869-83.771-44.535-114.927-80.007-30.083-34.25-52.282-75.809-64.198-120.182a25.386 25.386 0 0 1 33.596-30.287l178.328 68.321c9.564 3.665 20.074 1.442 27.426-5.801 13.478-13.331 32.222-36.399 44.77-70.385 12.153-32.914 12.895-63.363 11.377-83.11-.799-10.732-7.568-20.024-17.248-23.733L647.48 2386.11a25.384 25.384 0 0 1-5.283-44.631c37.937-26.038 81.953-42.879 127.29-48.701 46.854-6.018 95.134-.189 139.619 16.854 29.727 11.389 67.319 28.399 94.384 59.106 31.155 35.347 50.844 81.295 56.938 132.876 5.732 48.519-.688 99.761-18.568 148.188-13.684 37.06-31.937 69.421-54.251 96.183-25.225 30.253-54.487 51.839-86.974 64.159-20.603 7.818-42.896 11.722-66.738 11.723zm-216.772-184.581c27.44 52.516 72.969 93.946 128.466 115.209 37.195 14.249 91.163 27.584 137.043 10.186 46.877-17.778 87.556-65.329 111.603-130.459 31.173-84.429 19.856-174.674-28.83-229.913-19.745-22.402-50.166-35.959-74.462-45.268-56.476-21.638-118.482-20.655-173.634 1.459l127.406 48.812c27.948 10.708 47.459 37.127 49.708 67.309 1.9 24.735.954 63.006-14.375 104.524-15.777 42.729-39.559 71.945-56.731 88.931-21.417 21.097-53.294 27.787-81.251 17.077l-124.943-47.867z" class="color0412a3 svgShape"></path><path fill="#ffffff" d="M3697.264 1748.194h-127.535c-44.216 0-80.06-35.844-80.06-80.06s35.844-80.06 80.06-80.06h127.535" class="colorfff svgShape"></path><path fill="#0412a3" d="M3697.264 1773.577h-127.535c-58.142 0-105.442-47.301-105.442-105.443s47.301-105.443 105.442-105.443h127.535c14.019 0 25.383 11.364 25.383 25.383s-11.364 25.383-25.383 25.383h-127.535c-30.148 0-54.677 24.528-54.677 54.677s24.528 54.677 54.677 54.677h127.535c14.019 0 25.383 11.365 25.383 25.383s-11.365 25.383-25.383 25.383z" class="color0412a3 svgShape"></path><path fill="#ffffff" d="M4431.983 1588.074h127.535c44.216 0 80.06 35.844 80.06 80.06s-35.844 80.06-80.06 80.06h-127.535" class="colorfff svgShape"></path><path fill="#0412a3" d="M4559.519 1773.577h-127.535c-14.019 0-25.383-11.364-25.383-25.383s11.364-25.383 25.383-25.383h127.535c30.148 0 54.677-24.528 54.677-54.677s-24.528-54.677-54.677-54.677h-127.535c-14.019 0-25.383-11.365-25.383-25.383s11.364-25.383 25.383-25.383h127.535c58.142 0 105.442 47.301 105.442 105.443s-47.301 105.443-105.442 105.443z" class="color0412a3 svgShape"></path><circle cx="2750.347" cy="376.811" r="322.008" fill="#ffffff" class="colorfff svgShape"></circle><path fill="#0412a3" d="M2750.347 724.202c-46.886 0-92.383-9.188-135.228-27.31-41.37-17.498-78.519-42.542-110.414-74.438-31.896-31.896-56.94-69.045-74.438-110.415-18.122-42.845-27.31-88.342-27.31-135.229s9.188-92.384 27.31-135.228c17.498-41.37 42.543-78.519 74.438-110.415s69.044-56.94 110.414-74.438c42.845-18.122 88.342-27.31 135.228-27.31 46.887 0 92.384 9.188 135.229 27.31 41.37 17.498 78.519 42.543 110.415 74.438 31.896 31.896 56.94 69.044 74.438 110.415 18.121 42.844 27.31 88.342 27.31 135.228s-9.188 92.384-27.31 135.228c-17.498 41.371-42.543 78.519-74.438 110.415-31.896 31.896-69.045 56.94-110.415 74.438-42.846 18.122-88.343 27.311-135.229 27.311zm0-644.017c-163.56 0-296.625 133.066-296.625 296.625s133.065 296.625 296.625 296.625 296.626-133.066 296.626-296.625-133.067-296.625-296.626-296.625z" class="color0412a3 svgShape"></path><path fill="#fcf379" d="M2624.19 2440.056v-314.913c-107.466-48.295-182.734-156.185-182.734-281.726v-722.18c0-170.731 138.392-308.981 308.981-308.981 170.448 0 308.699 138.251 308.699 308.981v722.181c0 102.099-49.849 192.336-126.247 248.541v348.098" class="colorfcf379 svgShape"></path><path fill="#0412a3" d="M2932.889 2465.439c-14.019 0-25.383-11.364-25.383-25.383v-348.098a25.382 25.382 0 0 1 10.341-20.446c73.66-54.191 115.906-137.328 115.906-228.095v-722.18c0-156.376-127.096-283.598-283.316-283.598-156.376 0-283.598 127.222-283.598 283.598v722.18c0 111.28 65.848 212.777 167.756 258.574a25.383 25.383 0 0 1 14.978 23.152v314.913c0 14.019-11.364 25.383-25.383 25.383s-25.383-11.364-25.383-25.383v-298.94c-51.514-26.275-95.343-65.372-127.447-113.854-36.169-54.62-55.286-118.192-55.286-183.845v-722.18c0-45.146 8.847-88.95 26.295-130.195 16.845-39.82 40.956-75.575 71.662-106.271 30.699-30.69 66.456-54.789 106.276-71.625 41.231-17.434 85.014-26.273 130.13-26.273 45.084 0 88.835 8.84 130.035 26.276 39.787 16.838 75.514 40.938 106.188 71.631 30.677 30.696 54.764 66.451 71.593 106.271 17.43 41.242 26.267 85.043 26.267 130.187v722.18c0 53.227-12.91 106.199-37.335 153.188-21.564 41.486-52.149 78.55-88.912 107.875v335.576c-.002 14.018-11.366 25.382-25.384 25.382z" class="color0412a3 svgShape"></path><path fill="#fcf379" d="m2853.938 1000.069 430.188 273.004 568.069-306.992c58.063-31.296 130.745-9.677 162.247 48.386 31.296 58.268 9.677 130.951-48.386 162.453l-626.544 328.817a119.61 119.61 0 0 1-131.774 2.471l-527.92-334.788" class="colorfcf379 svgShape"></path><path fill="#0412a3" d="M3271.841 1552.161c-26.89.001-53.836-7.473-77.641-22.483l-527.975-334.823c-11.839-7.508-15.35-23.191-7.842-35.03 7.507-11.838 23.191-15.35 35.029-7.842l527.92 334.788c31.986 20.169 72.748 19.419 103.79-1.944a25.29 25.29 0 0 1 2.594-1.565l626.376-328.729c45.542-24.809 62.589-82.188 38.013-128.007-24.8-45.647-82.15-62.741-127.866-38.099l-568.046 306.979a25.379 25.379 0 0 1-25.668-.899l-430.188-273.004c-11.837-7.512-15.343-23.196-7.831-35.032 7.512-11.837 23.195-15.344 35.032-7.831l417.617 265.026 554.972-299.914c70.329-37.907 158.526-11.61 196.625 58.612l.051.094c37.831 70.433 11.524 158.705-58.643 196.774l-.309.166-625.264 328.145a144.595 144.595 0 0 1-80.746 24.618z" class="color0412a3 svgShape"></path><path fill="#0412a3" d="M3931.581 1468.458c-9.915 0-19.331-5.844-23.412-15.558l-85.436-203.352c-5.431-12.924.646-27.804 13.569-33.233 12.925-5.432 27.804.646 33.233 13.569l85.436 203.352c5.431 12.924-.646 27.804-13.569 33.233a25.292 25.292 0 0 1-9.821 1.989zm-178.097-423.629c-9.918 0-19.338-5.849-23.416-15.567L3617.649 761.39c-5.425-12.926.656-27.803 13.583-33.228 12.921-5.425 27.803.656 33.228 13.583l112.419 267.872c5.425 12.927-.656 27.803-13.583 33.228a25.311 25.311 0 0 1-9.812 1.984zm424.806-235.572c-7.342 0-14.624-3.168-19.643-9.289-27.887-34.007-39.349-70.048-35.04-110.182 3.701-34.478 18.526-67.828 32.863-100.08 23.415-52.672 15.426-105.851-22.496-149.742-9.165-10.607-7.995-26.637 2.612-35.802s26.635-7.997 35.802 2.612c50.756 58.745 61.862 132.937 30.471 203.553-30.1 67.711-45.171 108.41-4.956 157.45 8.889 10.84 7.308 26.833-3.532 35.723a25.282 25.282 0 0 1-16.081 5.757zm-205.897 0c-7.342 0-14.624-3.168-19.643-9.289-27.887-34.007-39.348-70.048-35.04-110.182 3.701-34.479 18.527-67.829 32.864-100.08 23.414-52.672 15.425-105.852-22.496-149.741-9.165-10.607-7.996-26.637 2.612-35.802 10.607-9.165 26.635-7.997 35.802 2.612 50.755 58.744 61.861 132.936 30.471 203.552-30.101 67.711-45.172 108.409-4.957 157.45 8.889 10.84 7.308 26.834-3.533 35.723a25.277 25.277 0 0 1-16.08 5.757z" class="color0412a3 svgShape"></path><path fill="#fc9a8d" d="M3792.278 1930.58c-49.296 0-89.258-39.962-89.258-89.257v-398.268h728.963v398.268c0 49.295-39.962 89.257-89.258 89.257" class="colorfc9a8d svgShape"></path><path fill="#0412a3" d="M4342.726 1955.962c-14.019 0-25.383-11.364-25.383-25.383s11.364-25.383 25.383-25.383c35.221 0 63.875-28.654 63.875-63.875v-372.885h-678.197v372.885c0 35.22 28.654 63.875 63.875 63.875 14.019 0 25.383 11.364 25.383 25.383s-11.364 25.383-25.383 25.383c-63.213 0-114.641-51.427-114.641-114.64v-398.268c0-14.019 11.364-25.383 25.383-25.383h728.963c14.019 0 25.383 11.364 25.383 25.383v398.268c-.001 63.213-51.429 114.64-114.641 114.64z" class="color0412a3 svgShape"></path><path fill="#80d0ff" d="M3414.154 2440.056v-339.343h-104.077v-170.165H4829v170.165h-104.076v339.343" class="color80d0ff svgShape"></path><path fill="#0412a3" d="M4724.924 2465.439c-14.019 0-25.383-11.365-25.383-25.383v-339.343c0-14.019 11.364-25.383 25.383-25.383h78.693v-119.399H3335.46v119.399h78.693c14.019 0 25.383 11.365 25.383 25.383v339.343c0 14.019-11.364 25.383-25.383 25.383s-25.383-11.365-25.383-25.383v-313.959h-78.693c-14.019 0-25.383-11.365-25.383-25.383v-170.166c0-14.019 11.364-25.383 25.383-25.383H4829c14.019 0 25.383 11.365 25.383 25.383v170.166c0 14.019-11.364 25.383-25.383 25.383h-78.693v313.959c0 14.019-11.365 25.383-25.383 25.383z" class="color0412a3 svgShape"></path></svg></g></svg>