<svg width="256" height="256" viewBox="0 0 256 256" fill="none" xmlns="http://www.w3.org/2000/svg">
<g clip-path="url(#clip0_1_2)">
<path d="M23.6715 53.9609C23.3849 53.9611 23.1064 53.8662 22.8796 53.6909C22.3109 53.253 22.2049 52.437 22.6428 51.8683C25.5592 48.0809 28.7275 44.4202 32.0594 40.9882C32.5594 40.4732 33.3821 40.461 33.8972 40.961C34.4122 41.461 34.4244 42.2837 33.9244 42.7987C30.6612 46.1599 27.5584 49.7449 24.7022 53.4541C24.4463 53.7866 24.061 53.9609 23.6715 53.9609ZM43.4792 33.5593C43.1029 33.5593 42.7297 33.3966 42.4728 33.0827C42.0181 32.5272 42.0999 31.7084 42.6554 31.2539C46.3581 28.2235 50.2737 25.3771 54.2934 22.7936C54.8972 22.4056 55.7013 22.5805 56.0893 23.1843C56.4774 23.7881 56.3025 24.5922 55.6987 24.9802C51.7623 27.5102 47.9278 30.2977 44.3016 33.2654C44.0698 33.4556 43.7791 33.5595 43.4792 33.5593ZM67.3976 18.1903C66.9173 18.1903 66.4556 17.9231 66.2299 17.4628C65.9137 16.8184 66.1799 16.0397 66.8243 15.7236C71.1195 13.6167 75.5813 11.7396 80.0859 10.1444C80.7622 9.9048 81.5051 10.259 81.7447 10.9356C81.9844 11.6122 81.6301 12.3549 80.9535 12.5945C76.5432 14.1563 72.1745 15.9942 67.969 18.0572C67.7912 18.1447 67.5958 18.1903 67.3976 18.1903ZM94.1906 8.70227C93.5978 8.70227 93.0623 8.29405 92.9248 7.69168C92.765 6.99193 93.2028 6.29515 93.9025 6.13541C98.5567 5.0727 103.33 4.26932 108.09 3.74759C108.804 3.66931 109.445 4.18438 109.523 4.89785C109.602 5.61133 109.087 6.25312 108.373 6.33135C103.712 6.84228 99.0383 7.62891 94.4811 8.66945C94.3858 8.69121 94.2884 8.70222 94.1906 8.70227ZM99.2271 251.509C99.1237 251.509 99.0207 251.497 98.9202 251.473C98.4358 251.355 97.9523 251.235 97.4847 251.118C96.5335 250.88 95.5498 250.635 94.4185 250.382C91.7626 249.788 89.1268 249.108 86.5154 248.342C85.8266 248.14 85.4322 247.418 85.6342 246.729C85.8363 246.04 86.5585 245.646 87.2472 245.848C89.8041 246.598 92.3848 247.264 94.9852 247.845C96.1482 248.105 97.1478 248.355 98.1145 248.596C98.599 248.717 99.0565 248.831 99.5319 248.946C100.229 249.115 100.658 249.818 100.489 250.515C100.345 251.11 99.8132 251.509 99.2271 251.509ZM74.8714 244.184C74.7025 244.184 74.5352 244.151 74.379 244.087C70.4278 242.467 66.514 240.621 62.7464 238.6C62.1139 238.261 61.8762 237.473 62.2155 236.841C62.5547 236.208 63.3426 235.97 63.9751 236.31C67.6641 238.289 71.4961 240.096 75.3648 241.682C76.0289 241.954 76.3466 242.713 76.0743 243.377C75.8683 243.88 75.3831 244.184 74.8714 244.184ZM52.4678 232.168C52.2083 232.168 51.9548 232.091 51.7402 231.945C48.2044 229.55 44.7504 226.943 41.4742 224.196C40.9242 223.735 40.8522 222.915 41.3134 222.365C41.7746 221.815 42.5943 221.743 43.1443 222.204C46.3527 224.894 49.7352 227.448 53.1978 229.793C53.792 230.195 53.9475 231.003 53.5451 231.597C53.2938 231.968 52.8845 232.168 52.4678 232.168ZM32.9857 215.833C32.8118 215.833 32.6396 215.798 32.4794 215.73C32.3192 215.663 32.1743 215.563 32.0533 215.439C29.0756 212.372 26.2229 209.118 23.5746 205.765C23.1296 205.202 23.2255 204.385 23.7888 203.94C24.352 203.495 25.1693 203.591 25.6142 204.154C28.2078 207.438 31.0016 210.625 33.9179 213.628C34.418 214.143 34.4059 214.965 33.891 215.465C33.6488 215.701 33.3238 215.833 32.9857 215.833ZM218.407 207.125C218.111 207.125 217.823 207.024 217.593 206.838C217.034 206.387 216.946 205.569 217.396 205.01C220.336 201.361 223.093 197.504 225.593 193.547C225.976 192.94 226.779 192.759 227.386 193.143C227.992 193.526 228.174 194.329 227.79 194.936C225.238 198.976 222.422 202.914 219.42 206.641C219.163 206.959 218.787 207.125 218.407 207.125ZM233.591 183.083C233.402 183.083 233.21 183.042 233.029 182.955C232.382 182.644 232.109 181.867 232.42 181.22C234.451 176.997 236.254 172.613 237.782 168.189C238.016 167.511 238.756 167.15 239.434 167.385C240.113 167.619 240.473 168.359 240.239 169.037C238.679 173.556 236.836 178.034 234.763 182.347C234.539 182.812 234.075 183.083 233.591 183.083ZM242.871 156.204C242.778 156.204 242.684 156.194 242.59 156.173C241.889 156.019 241.446 155.326 241.6 154.625C242.605 150.058 243.354 145.376 243.828 140.709C243.901 139.995 244.539 139.474 245.252 139.547C245.966 139.62 246.487 140.257 246.414 140.971C245.93 145.738 245.164 150.519 244.139 155.183C244.005 155.79 243.468 156.204 242.871 156.204Z" fill="#0412A3"/>
<path d="M121.882 219.128C172.114 219.128 212.836 178.406 212.836 128.174C212.836 77.942 172.114 37.2208 121.882 37.2208C71.6501 37.2208 30.9289 77.942 30.9289 128.174C30.9289 178.406 71.6501 219.128 121.882 219.128Z" fill="#ADEDFF"/>
<path d="M176.138 194.125L193.119 203.05C196.442 204.837 199.003 207.769 200.327 211.302L209.778 236.606C211.615 241.506 210.1 247.031 206.027 250.312L203.603 252.266C202.858 252.866 201.929 253.194 200.971 253.194L193.92 253.194H128.364L121.212 253.194C120.255 253.194 119.326 252.866 118.581 252.266L116.157 250.312C112.083 247.031 110.576 241.506 112.406 236.606L121.857 211.302C123.181 207.769 125.742 204.837 129.065 203.05L146.046 194.125" fill="#FC9A8D"/>
<path d="M200.971 254.494L193.92 254.493H128.364L121.212 254.494C119.963 254.494 118.738 254.062 117.765 253.278L115.341 251.324C110.827 247.688 109.158 241.59 111.188 236.151L120.64 210.847C122.076 207.017 124.849 203.842 128.449 201.905C128.453 201.903 128.456 201.901 128.46 201.9L145.441 192.974C146.076 192.64 146.862 192.885 147.196 193.52C147.53 194.155 147.286 194.941 146.65 195.275L129.675 204.197C126.632 205.836 124.287 208.522 123.074 211.758L113.623 237.06C111.985 241.448 113.331 246.367 116.972 249.3L119.396 251.254C119.911 251.668 120.552 251.894 121.212 251.895L128.364 251.894H193.92L200.972 251.895C201.632 251.894 202.273 251.668 202.788 251.254L205.211 249.301C208.858 246.363 210.204 241.445 208.561 237.062L199.109 211.757C197.896 208.521 195.551 205.836 192.509 204.197L175.533 195.275C174.898 194.941 174.654 194.155 174.988 193.52C175.321 192.885 176.107 192.64 176.743 192.974L193.724 201.9C193.727 201.902 193.731 201.903 193.735 201.905C197.334 203.842 200.109 207.019 201.544 210.846L210.995 236.151C211.992 238.811 212.123 241.668 211.372 244.41C210.622 247.151 209.055 249.542 206.842 251.325L204.419 253.278C203.446 254.062 202.221 254.494 200.971 254.494Z" fill="#0412A3"/>
<path d="M181.733 168.425C186.157 169.084 186.262 174.833 185 178.087C184.06 180.541 182.3 182.111 179.615 182.111C179.587 182.111 179.531 183.422 179.531 183.422C179.531 188.688 177.322 193.434 173.782 196.8C173.536 197.038 173.284 197.262 173.017 197.487C169.799 200.228 165.628 201.876 161.077 201.876C156.52 201.876 152.348 200.228 149.13 197.487C148.871 197.262 148.611 197.038 148.366 196.8C144.832 193.434 142.624 188.688 142.624 183.422C142.624 183.422 142.561 182.111 142.533 182.111C139.854 182.111 138.095 180.541 137.148 178.087C135.893 174.833 135.416 170.318 139.847 169.659L139.633 159.641C139.633 159.641 143.663 146.975 160.688 146.975C177.714 146.975 181.733 168.425 181.733 168.425Z" fill="white"/>
<path d="M161.077 203.175C158.691 203.175 156.359 202.755 154.146 201.926C152.005 201.124 150.034 199.964 148.287 198.476L148.28 198.47C148.011 198.237 147.735 197.998 147.465 197.736C145.547 195.908 144.038 193.758 142.98 191.345C141.885 188.851 141.329 186.196 141.324 183.454L141.317 183.314C138.864 182.91 136.977 181.255 135.935 178.554C135.236 176.741 134.281 173.325 135.742 170.817C136.184 170.058 137.011 169.133 138.526 168.637L138.333 159.669C138.33 159.526 138.351 159.384 138.394 159.247C138.439 159.106 139.535 155.744 142.852 152.394C144.791 150.436 147.097 148.876 149.704 147.76C152.932 146.377 156.628 145.675 160.688 145.675H160.688C164.852 145.675 168.631 146.886 171.922 149.275C174.521 151.16 176.807 153.775 178.717 157.045C181.224 161.336 182.408 165.581 182.826 167.343C184.16 167.754 185.231 168.61 185.954 169.855C186.646 171.045 187.007 172.581 186.996 174.295C186.987 175.76 186.709 177.272 186.212 178.554C185.178 181.254 183.294 182.909 180.837 183.313L180.83 183.451C180.827 186.195 180.269 188.851 179.174 191.346C178.114 193.76 176.603 195.91 174.682 197.737C174.435 197.977 174.165 198.219 173.856 198.479C170.3 201.507 165.761 203.175 161.077 203.175ZM149.977 196.501C153.064 199.129 157.006 200.576 161.077 200.576C165.146 200.576 169.087 199.127 172.175 196.497L172.18 196.493C172.448 196.267 172.669 196.068 172.876 195.867L172.886 195.858C176.333 192.581 178.231 188.165 178.231 183.422C178.231 183.404 178.232 183.385 178.232 183.367C178.233 183.353 178.247 183.028 178.265 182.697C178.275 182.498 178.285 182.337 178.294 182.219C178.299 182.151 178.305 182.083 178.313 182.015C178.41 181.188 179.056 180.811 179.615 180.811C181.6 180.811 182.964 179.768 183.786 177.622L183.788 177.616C184.5 175.78 184.714 172.893 183.707 171.161C183.225 170.33 182.516 169.856 181.541 169.711C181.274 169.671 181.026 169.549 180.831 169.362C180.637 169.174 180.505 168.931 180.455 168.666C180.446 168.614 179.438 163.405 176.438 158.296C172.533 151.646 167.234 148.275 160.688 148.275C154.041 148.275 148.692 150.245 144.79 154.132C142.286 156.626 141.202 159.16 140.937 159.854L141.147 169.631C141.161 170.286 140.686 170.848 140.039 170.945C139.035 171.094 138.364 171.48 137.988 172.125C137.33 173.255 137.469 175.309 138.361 177.619C139.189 179.767 140.554 180.811 142.533 180.811C143.089 180.811 143.733 181.186 143.834 182.009C143.842 182.076 143.849 182.144 143.854 182.212C143.864 182.33 143.874 182.491 143.886 182.69C143.906 183.021 143.921 183.346 143.922 183.36C143.923 183.38 143.923 183.401 143.923 183.422C143.923 188.163 145.819 192.58 149.262 195.858L149.271 195.867C149.489 196.079 149.726 196.284 149.977 196.501Z" fill="#0412A3"/>
<path d="M193.92 253.194H128.364V215.639C128.364 213.323 130.241 211.445 132.558 211.445H189.726C192.042 211.445 193.92 213.323 193.92 215.639L193.92 253.194Z" fill="white"/>
<path d="M193.92 254.493H128.364C127.646 254.493 127.064 253.912 127.064 253.194V215.639C127.064 212.61 129.529 210.146 132.558 210.146H189.726C192.755 210.146 195.219 212.61 195.219 215.639V253.194C195.219 253.912 194.638 254.493 193.92 254.493ZM129.663 251.894H192.62V215.639C192.62 214.043 191.322 212.745 189.726 212.745H132.558C130.962 212.745 129.663 214.043 129.663 215.639V251.894H129.663ZM174.141 179.893H167.228C165.654 179.893 164.256 178.892 163.748 177.403C163.745 177.393 163.741 177.384 163.738 177.374L162.247 172.642H159.938L158.671 177.201C158.23 178.786 156.773 179.893 155.128 179.893H148.215C146.642 179.893 145.243 178.892 144.735 177.403C144.732 177.393 144.728 177.384 144.725 177.374L142.948 171.733C142.886 171.538 142.872 171.332 142.905 171.13C142.938 170.929 143.019 170.738 143.139 170.573C143.26 170.409 143.418 170.275 143.6 170.183C143.782 170.091 143.983 170.042 144.187 170.042H158.921C158.94 170.042 158.959 170.042 158.979 170.042H163.171C163.191 170.042 163.211 170.042 163.23 170.042H177.963C178.164 170.042 178.361 170.089 178.541 170.178C178.72 170.267 178.877 170.396 178.998 170.556C179.119 170.715 179.202 170.901 179.24 171.097C179.278 171.294 179.269 171.497 179.216 171.69L177.684 177.201C177.243 178.786 175.786 179.893 174.141 179.893ZM166.212 176.575C166.286 176.785 166.424 176.967 166.606 177.096C166.788 177.224 167.005 177.294 167.228 177.294H174.141C174.623 177.294 175.05 176.969 175.179 176.504L176.253 172.642H164.972L166.212 176.575ZM147.199 176.575C147.273 176.785 147.411 176.967 147.593 177.096C147.775 177.224 147.992 177.294 148.215 177.294H155.128C155.61 177.294 156.037 176.969 156.167 176.504L157.24 172.642H145.959L147.199 176.575Z" fill="#0412A3"/>
<path d="M128.362 238.365C128.124 238.365 127.892 238.3 127.689 238.176L121.688 234.537C121.074 234.165 120.878 233.366 121.25 232.752C121.622 232.139 122.421 231.943 123.035 232.315L129.037 235.954C129.65 236.326 129.846 237.125 129.474 237.739C129.23 238.142 128.801 238.365 128.362 238.365ZM193.919 238.365C193.48 238.365 193.051 238.142 192.807 237.739C192.434 237.125 192.63 236.326 193.244 235.954L199.246 232.315C199.86 231.943 200.659 232.139 201.031 232.752C201.403 233.366 201.207 234.165 200.593 234.537L194.592 238.176C194.389 238.3 194.156 238.365 193.919 238.365Z" fill="#0412A3"/>
<path d="M150.22 155.232C150.22 155.232 167.358 170.396 187.139 168.248C187.139 168.248 185.164 161.768 180.033 156.556L187.139 158.213C187.139 158.213 186.619 151.417 181.888 146.919C178.143 143.358 171.582 142.832 171.582 142.832L178.66 139.07C178.66 139.07 168.121 134.169 157.977 139.574L159.11 134.365C159.11 134.365 145.965 133.793 140.335 145.711C134.706 157.63 138.299 166.054 139.844 169.659L150.22 155.232Z" fill="#FCF379"/>
<path d="M139.844 170.958C139.59 170.958 139.341 170.884 139.129 170.744C138.916 170.604 138.75 170.404 138.65 170.17C137.851 168.307 136.514 165.188 136.106 160.926C135.614 155.795 136.642 150.489 139.16 145.156C140.529 142.258 142.437 139.815 144.831 137.896C146.74 136.366 148.957 135.168 151.418 134.337C155.589 132.929 159.022 133.06 159.166 133.066C159.355 133.075 159.54 133.124 159.708 133.211C159.876 133.299 160.023 133.421 160.139 133.571C160.255 133.721 160.336 133.895 160.378 134.079C160.419 134.264 160.42 134.456 160.38 134.641L159.799 137.312C161.557 136.629 163.408 136.165 165.328 135.926C167.577 135.645 169.924 135.673 172.304 136.008C176.351 136.578 179.093 137.838 179.208 137.891C179.427 137.993 179.613 138.154 179.746 138.356C179.879 138.558 179.952 138.794 179.959 139.035C179.965 139.277 179.904 139.516 179.782 139.724C179.661 139.933 179.483 140.104 179.27 140.217L175.479 142.232C177.777 142.841 180.661 143.959 182.783 145.977C187.819 150.765 188.412 157.816 188.435 158.114C188.45 158.318 188.417 158.522 188.339 158.71C188.261 158.899 188.14 159.067 187.985 159.2C187.83 159.332 187.646 159.427 187.447 159.475C187.249 159.524 187.042 159.525 186.843 159.479L183.583 158.718C186.946 163.247 188.313 167.644 188.382 167.869C188.438 168.052 188.452 168.245 188.425 168.434C188.397 168.623 188.329 168.804 188.223 168.964C188.118 169.124 187.979 169.258 187.816 169.357C187.652 169.457 187.469 169.519 187.279 169.54C182.612 170.047 177.708 169.656 172.704 168.38C168.725 167.365 164.673 165.789 160.661 163.698C155.768 161.147 152.171 158.482 150.463 157.12L140.899 170.417C140.779 170.585 140.62 170.721 140.437 170.815C140.253 170.909 140.05 170.958 139.844 170.958ZM151.081 154.258C151.123 154.295 155.369 158.017 161.923 161.425C167.575 164.363 176.094 167.633 185.325 167.095C184.44 164.94 182.477 160.891 179.107 157.467C178.909 157.267 178.782 157.007 178.745 156.728C178.708 156.449 178.762 156.165 178.9 155.92C179.037 155.674 179.251 155.48 179.509 155.366C179.766 155.253 180.054 155.226 180.328 155.29L185.547 156.507C185.405 155.857 185.232 155.214 185.028 154.581C184.415 152.683 183.218 149.977 180.993 147.861C177.62 144.654 171.539 144.132 171.478 144.127C171.198 144.104 170.933 143.992 170.722 143.806C170.511 143.62 170.367 143.37 170.31 143.095C170.253 142.82 170.286 142.533 170.406 142.279C170.525 142.025 170.724 141.816 170.972 141.684L175.429 139.315C174.444 139.038 173.23 138.759 171.858 138.57C166.988 137.901 162.524 138.624 158.589 140.721C158.37 140.838 158.122 140.889 157.875 140.87C157.628 140.85 157.391 140.76 157.193 140.611C156.996 140.461 156.845 140.258 156.759 140.025C156.673 139.793 156.655 139.541 156.707 139.298L157.485 135.721C156.211 135.826 154.282 136.104 152.162 136.83C147.259 138.509 143.675 141.684 141.511 146.266C137.043 155.724 138.647 162.866 140.165 166.987L149.165 154.473C149.271 154.325 149.407 154.202 149.564 154.11C149.721 154.018 149.895 153.96 150.075 153.94C150.256 153.92 150.439 153.938 150.612 153.992C150.785 154.047 150.945 154.138 151.081 154.258ZM214.381 193.501C214.009 193.501 213.639 193.341 213.382 193.032C212.923 192.481 212.998 191.661 213.549 191.202L220.719 185.236L213.549 179.269C212.998 178.81 212.923 177.991 213.382 177.439C213.841 176.888 214.66 176.812 215.212 177.272L223.582 184.237C223.728 184.359 223.846 184.511 223.927 184.684C224.008 184.857 224.05 185.045 224.05 185.236C224.05 185.426 224.008 185.615 223.927 185.787C223.846 185.96 223.728 186.113 223.582 186.235L215.212 193.2C214.979 193.395 214.685 193.501 214.381 193.501ZM198.166 193.501C197.862 193.501 197.568 193.395 197.335 193.2L188.966 186.235C188.819 186.113 188.701 185.96 188.62 185.787C188.539 185.615 188.498 185.426 188.498 185.236C188.498 185.045 188.539 184.857 188.62 184.684C188.701 184.511 188.819 184.359 188.966 184.237L197.335 177.272C197.887 176.812 198.707 176.887 199.166 177.439C199.625 177.991 199.55 178.81 198.998 179.269L191.829 185.236L198.998 191.202C199.55 191.661 199.625 192.481 199.166 193.032C198.909 193.341 198.539 193.501 198.166 193.501ZM203.668 196.029C203.566 196.029 203.462 196.017 203.358 195.991C202.661 195.821 202.234 195.118 202.405 194.42L207.028 175.516C207.198 174.818 207.902 174.391 208.599 174.562C209.296 174.732 209.723 175.436 209.553 176.133L204.93 195.038C204.784 195.631 204.253 196.029 203.668 196.029Z" fill="#0412A3"/>
<path d="M17.1416 66.8171H106.61V192.23H17.1416V66.8171Z" fill="white"/>
<path d="M106.61 193.53H17.1416C16.4238 193.53 15.842 192.948 15.842 192.23V66.8171C15.842 66.0994 16.4238 65.5175 17.1416 65.5175H106.61C107.328 65.5175 107.91 66.0994 107.91 66.8171V192.23C107.91 192.948 107.328 193.53 106.61 193.53ZM18.4412 190.931H105.31V68.1167H18.4412V190.931Z" fill="#0412A3"/>
<path d="M48.9117 82.6904L38.3922 76.3905L27.8726 82.6904V67.0149C27.8726 65.415 29.2705 64.118 30.9949 64.118H45.7894C47.5138 64.118 48.9117 65.415 48.9117 67.0149V82.6904Z" fill="#80D0FF"/>
<path d="M48.9117 83.99C48.6805 83.99 48.4494 83.9283 48.244 83.8053L38.3922 77.9053L28.5404 83.8053C28.3431 83.9235 28.1181 83.9871 27.8882 83.9899C27.6584 83.9927 27.4319 83.9344 27.2319 83.8211C27.0318 83.7077 26.8655 83.5433 26.7497 83.3447C26.634 83.1461 26.573 82.9203 26.573 82.6904V67.0149C26.573 64.7009 28.5567 62.8184 30.9949 62.8184H45.7894C48.2277 62.8184 50.2113 64.7009 50.2113 67.0149V82.6904C50.2113 82.8611 50.1777 83.0301 50.1124 83.1877C50.0471 83.3454 49.9514 83.4887 49.8307 83.6093C49.71 83.73 49.5667 83.8258 49.4091 83.8911C49.2514 83.9564 49.0824 83.99 48.9117 83.99ZM38.3922 75.0908C38.6232 75.0908 38.8544 75.1524 39.0599 75.2755L47.6121 80.3973V67.0149C47.6121 66.1342 46.7945 65.4176 45.7894 65.4176H30.9949C29.9899 65.4176 29.1722 66.1342 29.1722 67.0149V80.3973L37.7244 75.2755C37.9262 75.1546 38.157 75.0908 38.3922 75.0908Z" fill="#0412A3"/>
<path d="M17.1416 192.23H13.0866C10.6944 192.23 8.75525 190.291 8.75525 187.899V71.1485C8.75525 68.7564 10.6944 66.8172 13.0866 66.8172H17.1416V192.23Z" fill="#FCF379"/>
<path d="M17.1416 193.53H13.0866C9.98165 193.53 7.45564 191.004 7.45564 187.899V71.1485C7.45564 68.0436 9.9817 65.5175 13.0866 65.5175H17.1416C17.8594 65.5175 18.4412 66.0994 18.4412 66.8171V192.23C18.4412 192.948 17.8593 193.53 17.1416 193.53ZM13.0866 68.1167C11.4149 68.1167 10.0549 69.4768 10.0549 71.1485V187.899C10.0549 189.571 11.4149 190.931 13.0866 190.931H15.842V68.1167H13.0866ZM64.9189 99.2962H38.3922C37.6744 99.2962 37.0926 98.7144 37.0926 97.9966C37.0926 97.2788 37.6744 96.697 38.3922 96.697H64.9189C65.6367 96.697 66.2185 97.2788 66.2185 97.9966C66.2185 98.7144 65.6367 99.2962 64.9189 99.2962ZM78.5224 108.819H51.9956C51.2778 108.819 50.696 108.237 50.696 107.519C50.696 106.801 51.2779 106.219 51.9956 106.219H78.5224C79.2401 106.219 79.822 106.801 79.822 107.519C79.822 108.237 79.2401 108.819 78.5224 108.819ZM83.9637 99.2962H75.1215C74.4037 99.2962 73.8219 98.7143 73.8219 97.9966C73.8219 97.2789 74.4038 96.697 75.1215 96.697H83.9637C84.6815 96.697 85.2634 97.2789 85.2634 97.9966C85.2634 98.7143 84.6815 99.2962 83.9637 99.2962Z" fill="#0412A3"/>
<path d="M51.9656 169.302L75.4978 145.331C77.3708 143.423 79.9403 142.401 82.5823 142.51C85.3493 142.624 88.1564 141.603 90.273 139.447C91.889 137.801 92.8562 135.744 93.1717 133.613L88.3876 136.245C87.3854 136.797 86.1723 136.763 85.205 136.156L82.0415 134.172C81.0742 133.565 80.4997 132.478 80.5347 131.319L80.6489 127.532C80.6839 126.373 81.3229 125.319 82.3252 124.768L86.7597 122.327C83.0892 120.88 78.761 121.674 75.7929 124.698C74.274 126.245 73.3287 128.154 72.9573 130.151C72.6122 132.007 71.686 133.7 70.3739 135.036L46.7056 159.146C44.8465 161.04 42.3005 162.063 39.6776 161.969C36.9279 161.87 34.1433 162.893 32.0404 165.035C30.4244 166.681 29.4572 168.738 29.1417 170.869L33.9258 168.237C34.9281 167.685 36.1412 167.719 37.1084 168.326L40.2719 170.31C41.2393 170.917 41.8137 172.004 41.7787 173.163L41.6645 176.951C41.6296 178.109 40.9906 179.163 39.9882 179.714L35.5537 182.155C39.2242 183.602 43.5524 182.808 46.5205 179.785C48.0578 178.219 49.0067 176.282 49.3681 174.258C49.7044 172.376 50.6362 170.656 51.9656 169.302Z" fill="#80D0FF"/>
<path d="M39.2436 184.157C37.8426 184.157 36.4306 183.897 35.0772 183.364C34.8477 183.274 34.6486 183.12 34.5033 182.92C34.358 182.721 34.2725 182.484 34.2568 182.238C34.241 181.992 34.2957 181.746 34.4144 181.53C34.5331 181.314 34.7109 181.135 34.9271 181.017L39.3616 178.576C39.9598 178.246 40.3445 177.609 40.3656 176.911L40.4798 173.123C40.5008 172.428 40.1566 171.772 39.5814 171.411L36.4179 169.427C35.8532 169.072 35.1384 169.053 34.5524 169.375L29.7683 172.008C29.5562 172.124 29.3157 172.179 29.074 172.167C28.8323 172.154 28.5988 172.074 28.4001 171.936C28.2013 171.798 28.0451 171.607 27.949 171.385C27.8529 171.163 27.8207 170.918 27.8562 170.679C28.2253 168.185 29.3516 165.918 31.1131 164.124C32.27 162.945 33.6255 162.046 35.1419 161.452C36.6078 160.877 38.1495 160.614 39.724 160.67C41.9738 160.752 44.1803 159.863 45.7782 158.235L69.4466 134.126C70.6166 132.934 71.3887 131.477 71.6796 129.913C72.1122 127.588 73.2138 125.469 74.8655 123.787C78.1096 120.482 82.9653 119.434 87.2362 121.118C87.4657 121.208 87.6648 121.362 87.81 121.561C87.9553 121.761 88.0408 121.998 88.0566 122.244C88.0723 122.49 88.0176 122.736 87.899 122.952C87.7803 123.168 87.6025 123.346 87.3864 123.465L82.9519 125.906C82.3537 126.235 81.9689 126.873 81.9479 127.571L81.8337 131.358C81.8127 132.054 82.157 132.71 82.7321 133.071L85.8956 135.055C86.4604 135.409 87.1752 135.429 87.7611 135.107L92.5452 132.474C92.7573 132.357 92.9978 132.302 93.2395 132.315C93.4812 132.328 93.7146 132.408 93.9134 132.546C94.1122 132.684 94.2684 132.875 94.3645 133.097C94.4606 133.319 94.4928 133.564 94.4573 133.803C94.0882 136.297 92.9619 138.563 91.2005 140.358C90.036 141.544 88.6707 142.447 87.1427 143.041C85.6657 143.616 84.1134 143.874 82.5288 143.808C80.2591 143.714 78.0349 144.601 76.4252 146.241L52.8931 170.212C51.7081 171.419 50.9316 172.897 50.6476 174.487C50.2263 176.845 49.1199 178.992 47.448 180.695C45.2318 182.952 42.2635 184.157 39.2436 184.157ZM35.442 166.547C36.2757 166.547 37.0926 166.782 37.799 167.225L40.9625 169.209C42.316 170.058 43.1265 171.588 43.0778 173.202L42.9636 176.99C42.915 178.602 42.015 180.082 40.6149 180.853L39.3371 181.556C41.6402 181.531 43.8991 180.6 45.5931 178.874C46.8968 177.546 47.7599 175.871 48.0888 174.03C48.4651 171.923 49.4851 169.973 51.0382 168.391L74.5702 144.42C76.6938 142.257 79.6335 141.088 82.6358 141.211C85.1303 141.315 87.5759 140.34 89.3455 138.537C89.9977 137.873 90.5383 137.125 90.957 136.315L89.014 137.384C87.602 138.161 85.8779 138.112 84.5144 137.257L81.3509 135.273C79.9974 134.424 79.1868 132.894 79.2355 131.28L79.3498 127.492C79.3984 125.88 80.2983 124.4 81.6984 123.629L82.9763 122.926C80.6732 122.951 78.4142 123.882 76.7202 125.608C75.432 126.92 74.5726 128.573 74.2349 130.389C73.8491 132.463 72.8347 134.384 71.3013 135.947L47.6329 160.056C45.5249 162.203 42.6084 163.374 39.6311 163.267C37.117 163.178 34.751 164.129 32.9678 165.945C32.3155 166.609 31.775 167.357 31.3562 168.167L33.2992 167.098C33.9557 166.737 34.6928 166.547 35.442 166.547Z" fill="#0412A3"/>
<path d="M75.5216 175.865C75.1276 174.653 73.5478 170.227 70.6819 167.308L48.9572 145.178C47.7491 143.948 45.0579 143.395 43.3109 143.152L53.0832 129.207V129.215C53.4586 131.202 54.4585 135.432 56.4918 137.503L78.2166 159.633C81.0378 162.507 85.1787 164.074 86.4017 164.495L75.5216 175.865Z" fill="#80D0FF"/>
<path d="M75.5216 177.165C75.2472 177.165 74.9799 177.078 74.7579 176.917C74.5358 176.755 74.3706 176.528 74.2857 176.267C74.0069 175.41 72.4783 170.993 69.7545 168.218L48.0297 146.089C47.3295 145.375 45.5444 144.774 43.1323 144.44C42.9118 144.409 42.7029 144.322 42.5255 144.188C42.3482 144.053 42.2084 143.875 42.1194 143.671C42.0305 143.467 41.9955 143.244 42.0178 143.022C42.04 142.801 42.1188 142.589 42.2465 142.407L52.0188 128.461C52.1685 128.248 52.379 128.084 52.6229 127.992C52.8668 127.899 53.1329 127.883 53.3865 127.943C53.64 128.004 53.8695 128.14 54.0449 128.333C54.2203 128.526 54.3336 128.767 54.3701 129.025C54.696 130.733 55.6273 134.767 57.4191 136.593L79.1439 158.722C81.7608 161.388 85.684 162.874 86.824 163.265C87.0302 163.336 87.2153 163.458 87.3622 163.619C87.5091 163.78 87.613 163.976 87.6645 164.188C87.7159 164.4 87.7133 164.621 87.6567 164.832C87.6 165.043 87.4914 165.235 87.3406 165.393L76.4606 176.764C76.3393 176.891 76.1935 176.991 76.0322 177.06C75.8708 177.129 75.6971 177.165 75.5216 177.165ZM45.54 142.236C47.5566 142.7 49.0136 143.38 49.8846 144.268L71.6093 166.397C73.7344 168.562 75.1844 171.457 76.0165 173.468L84.122 164.997C82.2008 164.163 79.4048 162.698 77.2892 160.543L55.5644 138.414C54.0797 136.901 53.1031 134.477 52.4843 132.326L45.54 142.236Z" fill="#0412A3"/>
<path d="M84.3264 182.789C89.3527 182.789 93.4272 178.638 93.4272 173.518C93.4272 168.398 89.3527 164.248 84.3264 164.248C79.3001 164.248 75.2255 168.398 75.2255 173.518C75.2255 178.638 79.3001 182.789 84.3264 182.789Z" fill="#80D0FF"/>
<path d="M84.3264 184.089C81.5438 184.089 78.929 182.986 76.9637 180.984C75.0047 178.989 73.9259 176.337 73.9259 173.518C73.9259 170.7 75.0047 168.048 76.9637 166.053C78.929 164.051 81.5438 162.948 84.3264 162.948C87.109 162.948 89.7238 164.051 91.6891 166.053C93.648 168.048 94.7268 170.7 94.7268 173.518C94.7268 176.337 93.648 178.989 91.689 180.984C89.7238 182.986 87.109 184.089 84.3264 184.089ZM84.3264 165.548C82.2472 165.548 80.2911 166.374 78.8185 167.874C75.7629 170.986 75.7629 176.051 78.8185 179.163C80.2911 180.663 82.2472 181.489 84.3264 181.489C86.4056 181.489 88.3617 180.663 89.8342 179.163C92.8898 176.051 92.8898 170.986 89.8342 167.874C88.3617 166.374 86.4056 165.548 84.3264 165.548Z" fill="#0412A3"/>
<path d="M46.0813 119.467C47.722 120.095 49.2983 120.885 50.4038 122.139C53.3646 125.498 53.8017 130.676 52.1241 135.22C50.89 138.562 48.698 141.509 45.6517 142.664C43.1936 143.597 40.3458 143.151 37.7093 142.141C33.4399 140.506 30.4452 136.927 29.3283 132.768L38.4587 136.266C39.4203 136.635 40.5006 136.41 41.2399 135.682C42.0838 134.847 43.1318 133.518 43.8393 131.602C44.5252 129.744 44.5922 128.018 44.4984 126.797C44.4202 125.747 43.7536 124.839 42.7845 124.468L33.6159 120.955C37.1627 118.521 41.7737 117.817 46.0813 119.467Z" fill="#80D0FF"/>
<path d="M42.6955 144.48C41.0228 144.48 39.2007 144.104 37.2444 143.355C34.99 142.491 32.9553 141.075 31.3601 139.259C29.8198 137.505 28.6833 135.377 28.0732 133.105C28.011 132.874 28.0141 132.63 28.0821 132.4C28.15 132.17 28.2802 131.963 28.4582 131.803C28.6362 131.643 28.8551 131.534 29.0907 131.491C29.3263 131.447 29.5695 131.469 29.7933 131.555L38.9237 135.053C39.4133 135.24 39.9515 135.126 40.3279 134.756C41.018 134.073 41.9776 132.892 42.6201 131.152C43.2423 129.467 43.2803 127.908 43.2026 126.897C43.1617 126.347 42.8151 125.871 42.3195 125.682L33.151 122.169C32.9297 122.084 32.7359 121.94 32.5904 121.753C32.4449 121.566 32.3532 121.343 32.3254 121.108C32.2975 120.873 32.3345 120.634 32.4324 120.419C32.5302 120.203 32.6852 120.018 32.8805 119.884C34.8229 118.551 37.0765 117.688 39.3977 117.39C41.7967 117.082 44.2686 117.381 46.5462 118.253C48.0682 118.836 49.993 119.707 51.3787 121.279C52.9738 123.089 53.9819 125.442 54.2939 128.083C54.5874 130.567 54.2587 133.19 53.3432 135.67C52.6426 137.567 51.7081 139.224 50.5656 140.594C49.2741 142.143 47.7758 143.249 46.1125 143.879C45.0576 144.28 43.9162 144.48 42.6955 144.48ZM31.5968 135.029C33.0017 137.718 35.3328 139.839 38.1743 140.928C40.0786 141.657 42.8418 142.34 45.1909 141.449C47.591 140.539 49.6737 138.104 50.9049 134.77C52.501 130.447 51.9216 125.826 49.4288 122.998C48.4179 121.851 46.8603 121.157 45.6164 120.681C42.7248 119.573 39.5501 119.623 36.7263 120.755L43.2495 123.254C44.6804 123.803 45.6794 125.155 45.7946 126.701C45.8918 127.967 45.8434 129.927 45.0586 132.052C44.2508 134.24 43.0331 135.736 42.1539 136.605C41.0574 137.686 39.4253 138.028 37.9939 137.48L31.5968 135.029Z" fill="#0412A3"/>
<path d="M189.3 89.5075H182.77C180.506 89.5075 178.671 87.6723 178.671 85.4085C178.671 83.1446 180.506 81.3094 182.77 81.3094H189.3" fill="white"/>
<path d="M189.3 90.8071H182.77C179.793 90.8071 177.372 88.3853 177.372 85.4085C177.372 82.4316 179.793 80.0098 182.77 80.0098H189.3C190.018 80.0098 190.6 80.5916 190.6 81.3094C190.6 82.0272 190.018 82.609 189.3 82.609H182.77C181.227 82.609 179.971 83.8648 179.971 85.4085C179.971 86.9521 181.227 88.2079 182.77 88.2079H189.3C190.018 88.2079 190.6 88.7898 190.6 89.5075C190.6 90.2253 190.018 90.8071 189.3 90.8071Z" fill="#0412A3"/>
<path d="M226.918 81.3094H233.447C235.711 81.3094 237.546 83.1446 237.546 85.4085C237.546 87.6723 235.711 89.5075 233.447 89.5075H226.918" fill="white"/>
<path d="M233.447 90.8071H226.918C226.2 90.8071 225.618 90.2253 225.618 89.5075C225.618 88.7898 226.2 88.2079 226.918 88.2079H233.447C234.991 88.2079 236.247 86.9521 236.247 85.4085C236.247 83.8648 234.991 82.609 233.447 82.609H226.918C226.2 82.609 225.618 82.0271 225.618 81.3094C225.618 80.5917 226.2 80.0098 226.918 80.0098H233.447C236.424 80.0098 238.846 82.4316 238.846 85.4085C238.846 88.3853 236.424 90.8071 233.447 90.8071Z" fill="#0412A3"/>
<path d="M140.818 35.7795C149.923 35.7795 157.305 28.3981 157.305 19.2927C157.305 10.1873 149.923 2.80592 140.818 2.80592C131.712 2.80592 124.331 10.1873 124.331 19.2927C124.331 28.3981 131.712 35.7795 140.818 35.7795Z" fill="white"/>
<path d="M140.818 37.0791C138.417 37.0791 136.088 36.6087 133.894 35.6809C131.776 34.785 129.874 33.5027 128.241 31.8696C126.608 30.2366 125.326 28.3345 124.43 26.2164C123.502 24.0227 123.031 21.6933 123.031 19.2927C123.031 16.8921 123.502 14.5626 124.43 12.369C125.326 10.2509 126.608 8.34883 128.241 6.71575C129.874 5.08268 131.776 3.80043 133.894 2.90453C136.088 1.97668 138.417 1.50626 140.818 1.50626C143.218 1.50626 145.548 1.97668 147.741 2.90453C149.86 3.80043 151.762 5.08273 153.395 6.71575C155.028 8.34883 156.31 10.2508 157.206 12.369C158.134 14.5626 158.604 16.8921 158.604 19.2927C158.604 21.6932 158.134 24.0227 157.206 26.2164C156.31 28.3345 155.028 30.2365 153.395 31.8696C151.762 33.5027 149.86 34.7849 147.741 35.6808C145.548 36.6087 143.218 37.0791 140.818 37.0791ZM140.818 4.10548C132.443 4.10548 125.631 10.9185 125.631 19.2927C125.631 27.6669 132.443 34.4799 140.818 34.4799C149.192 34.4799 156.005 27.6669 156.005 19.2927C156.005 10.9185 149.192 4.10548 140.818 4.10548Z" fill="#0412A3"/>
<path d="M134.359 124.931V108.807C128.856 106.335 125.003 100.811 125.003 94.383V57.4073C125.003 48.6659 132.088 41.5875 140.822 41.5875C149.549 41.5875 156.628 48.666 156.628 57.4073V94.383C156.628 99.6105 154.075 104.231 150.164 107.108V124.931" fill="#FCF379"/>
<path d="M150.164 126.23C149.446 126.23 148.864 125.649 148.864 124.931V107.108C148.864 106.904 148.912 106.704 149.004 106.522C149.096 106.34 149.23 106.182 149.394 106.061C153.165 103.287 155.328 99.0302 155.328 94.383V57.4073C155.328 49.4009 148.821 42.8871 140.822 42.8871C132.816 42.8871 126.302 49.4009 126.302 57.4073V94.383C126.302 100.08 129.674 105.277 134.891 107.622C135.12 107.725 135.314 107.891 135.45 108.101C135.586 108.312 135.658 108.557 135.658 108.807V124.931C135.658 125.649 135.076 126.23 134.359 126.23C133.641 126.23 133.059 125.649 133.059 124.931V109.625C130.421 108.28 128.177 106.278 126.534 103.796C124.682 100.999 123.703 97.7444 123.703 94.383V57.4073C123.703 55.0959 124.156 52.8531 125.049 50.7414C125.912 48.7026 127.146 46.8719 128.718 45.3003C130.29 43.729 132.121 42.4951 134.16 41.6331C136.271 40.7405 138.512 40.2879 140.822 40.2879C143.131 40.2879 145.371 40.7405 147.48 41.6332C149.517 42.4953 151.346 43.7293 152.917 45.3007C154.488 46.8724 155.721 48.703 156.583 50.7418C157.475 52.8534 157.927 55.096 157.927 57.4074V94.383C157.927 97.1082 157.266 99.8204 156.016 102.226C154.912 104.35 153.346 106.248 151.464 107.749V124.931C151.463 125.649 150.882 126.23 150.164 126.23Z" fill="#0412A3"/>
<path d="M146.122 51.2035L168.147 65.1813L197.232 49.4634C200.205 47.861 203.927 48.9679 205.539 51.9407C207.142 54.924 206.035 58.6454 203.062 60.2583L170.983 77.0937C169.994 77.7733 168.828 78.1476 167.629 78.1701C166.429 78.1926 165.25 77.8623 164.236 77.2203L137.207 60.0791" fill="#FCF379"/>
<path d="M167.518 79.4706C166.141 79.4707 164.762 79.088 163.543 78.3195L136.511 61.1766C135.905 60.7922 135.725 59.9892 136.109 59.383C136.494 58.7769 137.297 58.5971 137.903 58.9815L164.932 76.1227C166.57 77.1553 168.657 77.1169 170.246 76.0231C170.289 75.9938 170.333 75.967 170.379 75.943L202.45 59.1121C204.781 57.8419 205.654 54.9041 204.396 52.5581C203.126 50.221 200.19 49.3458 197.849 50.6075L168.765 66.3248C168.562 66.4347 168.333 66.4884 168.102 66.4803C167.871 66.4722 167.646 66.4026 167.451 66.2788L145.425 52.3009C144.819 51.9163 144.64 51.1133 145.024 50.5073C145.409 49.9013 146.212 49.7217 146.818 50.1064L168.2 63.6757L196.615 48.3201C200.215 46.3793 204.731 47.7257 206.682 51.321L206.684 51.3258C208.621 54.932 207.274 59.4515 203.682 61.4007L203.666 61.4092L171.652 78.2102C170.43 79.0322 168.991 79.4711 167.518 79.4706Z" fill="#0412A3"/>
<path d="M201.297 75.185C200.789 75.185 200.307 74.8858 200.098 74.3885L195.724 63.9768C195.446 63.3151 195.757 62.5533 196.419 62.2753C197.08 61.9972 197.842 62.3084 198.12 62.9701L202.495 73.3817C202.773 74.0434 202.461 74.8052 201.8 75.0832C201.641 75.1503 201.47 75.185 201.297 75.185ZM192.178 53.4952C191.671 53.4952 191.188 53.1958 190.979 52.6982L185.224 38.9832C184.946 38.3214 185.257 37.5596 185.919 37.2819C186.581 37.0041 187.343 37.3155 187.62 37.9773L193.376 51.6924C193.654 52.3542 193.343 53.1159 192.681 53.3937C192.522 53.4606 192.351 53.4952 192.178 53.4952ZM213.928 41.434C213.553 41.434 213.18 41.2718 212.923 40.9584C211.495 39.2172 210.908 37.3719 211.129 35.317C211.318 33.5518 212.077 31.8442 212.811 30.1929C214.01 27.4961 213.601 24.7734 211.659 22.5262C211.19 21.9831 211.25 21.1623 211.793 20.6931C212.336 20.2238 213.157 20.2836 213.626 20.8268C216.225 23.8346 216.794 27.6332 215.186 31.2487C213.645 34.7155 212.874 36.7993 214.933 39.3102C215.388 39.8652 215.307 40.684 214.752 41.1392C214.52 41.33 214.229 41.4342 213.928 41.434ZM203.387 41.434C203.011 41.434 202.638 41.2718 202.381 40.9584C200.953 39.2172 200.366 37.3719 200.587 35.317C200.776 33.5517 201.535 31.8442 202.269 30.1929C203.468 27.4961 203.059 24.7733 201.118 22.5262C200.648 21.9831 200.708 21.1624 201.251 20.6931C201.794 20.2239 202.615 20.2837 203.084 20.8269C205.683 23.8346 206.252 27.6332 204.644 31.2487C203.103 34.7155 202.332 36.7993 204.391 39.3102C204.846 39.8652 204.765 40.6841 204.21 41.1392C203.978 41.33 203.687 41.4342 203.387 41.434Z" fill="#0412A3"/>
<path d="M194.165 98.8457C191.641 98.8457 189.595 96.7996 189.595 94.2757V73.8844H226.918V94.2757C226.918 96.7996 224.871 98.8457 222.348 98.8457" fill="#FC9A8D"/>
<path d="M222.348 100.145C221.63 100.145 221.048 99.5634 221.048 98.8456C221.048 98.1279 221.63 97.546 222.348 97.546C224.151 97.546 225.618 96.079 225.618 94.2756V75.1839H190.894V94.2756C190.894 96.0789 192.361 97.546 194.165 97.546C194.882 97.546 195.464 98.1279 195.464 98.8456C195.464 99.5634 194.882 100.145 194.165 100.145C190.928 100.145 188.295 97.5122 188.295 94.2757V73.8844C188.295 73.1666 188.877 72.5848 189.595 72.5848H226.918C227.635 72.5848 228.217 73.1666 228.217 73.8844V94.2757C228.217 97.5122 225.584 100.145 222.348 100.145Z" fill="#0412A3"/>
<path d="M174.805 124.931V107.556H169.476V98.8441H247.245V107.556H241.916V124.931" fill="#80D0FF"/>
<path d="M241.916 126.23C241.198 126.23 240.616 125.649 240.616 124.931V107.556C240.616 106.839 241.198 106.257 241.916 106.257H245.945V100.144H170.776V106.257H174.805C175.522 106.257 176.104 106.839 176.104 107.556V124.931C176.104 125.649 175.522 126.23 174.805 126.23C174.087 126.23 173.505 125.649 173.505 124.931V108.856H169.476C168.758 108.856 168.176 108.274 168.176 107.557V98.8441C168.176 98.1263 168.758 97.5444 169.476 97.5444H247.245C247.963 97.5444 248.544 98.1263 248.544 98.8441V107.557C248.544 108.274 247.963 108.856 247.245 108.856H243.216V124.931C243.216 125.649 242.634 126.23 241.916 126.23Z" fill="#0412A3"/>
</g>
<defs>
<clipPath id="clip0_1_2">
<rect width="256" height="256" fill="white"/>
</clipPath>
</defs>
</svg>
